<svg width="68" height="68" viewBox="0 0 68 68" fill="none" xmlns="http://www.w3.org/2000/svg">
<mask id="mask0_4391_25061" style="mask-type:alpha" maskUnits="userSpaceOnUse" x="2" y="2" width="65" height="65">
<path d="M34.0804 66.1556C51.7951 66.1556 66.1558 51.7949 66.1558 34.0801C66.1558 16.3653 51.7951 2.00464 34.0804 2.00464C16.3656 2.00464 2.00488 16.3653 2.00488 34.0801C2.00488 51.7949 16.3656 66.1556 34.0804 66.1556Z" fill="#F1F1F2"/>
</mask>
<g mask="url(#mask0_4391_25061)">
<path d="M34.0755 66.1509C51.7903 66.1509 66.1509 51.7903 66.1509 34.0755C66.1509 16.3607 51.7903 2 34.0755 2C16.3607 2 2 16.3607 2 34.0755C2 51.7903 16.3607 66.1509 34.0755 66.1509Z" fill="#F1F1F2"/>
<path d="M46.9156 24.2197L63.4734 42.5117C64.5445 43.6945 65.1885 45.2438 65.1949 46.8632V70.039H45.2292L45.7297 67.221L30.1123 46.3659L46.9156 24.2197Z" fill="#C57C5A"/>
<path d="M54.463 24H14.2672C13.4185 24 12.7305 24.6727 12.7305 25.5026V47.4974C12.7305 48.3273 13.4185 49 14.2672 49H54.463C55.3117 49 55.9997 48.3273 55.9997 47.4974V25.5026C55.9997 24.6727 55.3117 24 54.463 24Z" fill="#DC1928"/>
<path d="M55.9997 43.2307H12.7305V46.1153H55.9997V43.2307Z" fill="#ED8C93"/>
<path d="M23.3079 33.1352V35.2492C23.3079 35.5808 23.1763 35.8988 22.9419 36.1333C22.7075 36.3678 22.3896 36.4998 22.058 36.5001H17.8271C17.6628 36.5001 17.5002 36.4677 17.3485 36.4048C17.1968 36.342 17.0589 36.2498 16.9428 36.1336C16.8268 36.0175 16.7347 35.8796 16.672 35.7278C16.6092 35.5761 16.577 35.4134 16.5771 35.2492V31.0201C16.577 30.8559 16.6092 30.6933 16.672 30.5415C16.7347 30.3898 16.8268 30.2519 16.9428 30.1357C17.0589 30.0195 17.1968 29.9274 17.3485 29.8645C17.5002 29.8016 17.6628 29.7693 17.8271 29.7693H22.058C22.3896 29.7696 22.7075 29.9015 22.9419 30.136C23.1763 30.3706 23.3079 30.6886 23.3079 31.0201" stroke="white" stroke-width="0.5" stroke-linecap="round" stroke-linejoin="round"/>
<path d="M12.7305 43.2307H53.1151" stroke="black" stroke-width="0.5" stroke-linecap="round" stroke-linejoin="round"/>
<path d="M50.2428 49.7023L42.8469 43.4095C42.8469 43.4095 36.994 37.9518 42.1041 34.0371L58.8596 45.1915L56.4528 69.0304C56.456 69.0336 48.3492 63.0946 50.2428 49.7023Z" fill="#C57C5A"/>
<path d="M42.6803 34.416L41.9949 35.3692C41.6028 35.9175 41.7303 36.6985 42.2818 37.0938L43.2733 37.8079C44.2264 38.4965 45.5303 38.2574 46.1678 37.2755L46.4133 36.8994L42.6803 34.416Z" fill="#D29779"/>
<path d="M54.4343 67.0079C52.1709 64.26 48.9767 58.6429 50.2422 49.6978" stroke="#995337" stroke-width="0.5" stroke-miterlimit="10" stroke-linecap="round" stroke-linejoin="round"/>
<path d="M56.5859 43.803L60.2392 46.0026" stroke="#995337" stroke-width="0.5" stroke-miterlimit="10" stroke-linecap="round" stroke-linejoin="round"/>
</g>
</svg>
