<svg width="68" height="68" viewBox="0 0 68 68" fill="none" xmlns="http://www.w3.org/2000/svg">
<path d="M34.0755 66.1509C51.7903 66.1509 66.1509 51.7903 66.1509 34.0755C66.1509 16.3607 51.7903 2 34.0755 2C16.3607 2 2 16.3607 2 34.0755C2 51.7903 16.3607 66.1509 34.0755 66.1509Z" fill="#F1F1F2"/>
<path d="M59.6655 36.2964C59.6004 35.5149 59.1445 34.7985 58.363 34.538L53.2833 32.3889L48.0083 27.179L44.4264 23.532C43.2542 22.4249 41.7564 21.7737 40.1283 21.7737H10.8875C9.51989 21.7737 8.34766 22.8808 8.34766 24.3135V40.6597C8.34766 42.0273 9.45477 43.1995 10.8875 43.1995H13.1017C13.5576 43.1995 13.9483 42.8088 13.9483 42.3529C13.9483 41.9622 13.9483 41.6366 14.0786 41.2458C14.5996 39.0316 16.6835 37.3384 18.9629 37.5337C21.3725 37.7291 23.3262 39.748 23.3262 42.2227C23.3262 42.2878 23.3262 42.3529 23.3262 42.418C23.3262 42.8739 23.717 43.2647 24.1728 43.2647H46.7709C47.2268 43.2647 47.6175 42.8739 47.6175 42.418C47.6175 41.9622 47.6827 41.4412 47.8129 40.9853C48.399 38.9665 50.2225 37.5337 52.3065 37.5989C54.9114 37.5989 56.9954 39.6828 56.9954 42.2878C56.9954 42.3529 56.9954 42.418 56.9954 42.4832C56.9954 42.939 57.3862 43.3949 57.842 43.3298H58.6235C59.3399 43.3298 59.8609 42.7437 59.8609 42.0273V37.0127L59.6655 36.2964Z" fill="#DC1928"/>
<path d="M13.626 30.1096C13.626 32.2587 14.9285 34.017 16.8171 34.7334V25.4207C14.9936 26.137 13.626 27.9605 13.626 30.1096Z" fill="white"/>
<path d="M18.574 25.0952C18.4438 25.0952 18.3135 25.0952 18.1833 25.0952V25.4208C20.0719 25.4208 21.5697 26.8536 21.5697 28.6119C21.5697 30.3703 20.0068 31.803 18.1182 31.803V35.0592C18.2484 35.0592 18.3787 35.0592 18.5089 35.0592C21.2441 35.0592 23.4583 32.845 23.4583 30.1098C23.5886 27.3746 21.3744 25.0952 18.574 25.0952Z" fill="white"/>
<path d="M27.6895 21.7737V43.1344" stroke="#A2121E" stroke-width="0.5" stroke-miterlimit="10" stroke-linejoin="round"/>
<path d="M40 21.7737V43.1344" stroke="#A2121E" stroke-width="0.5" stroke-miterlimit="10" stroke-linejoin="round"/>
<path d="M52.1757 46.0001C54.3697 46.0001 56.1483 44.2215 56.1483 42.0275C56.1483 39.8335 54.3697 38.0549 52.1757 38.0549C49.9817 38.0549 48.2031 39.8335 48.2031 42.0275C48.2031 44.2215 49.9817 46.0001 52.1757 46.0001Z" fill="#212129"/>
<path d="M52.1756 43.5255C53.0028 43.5255 53.6734 42.8549 53.6734 42.0276C53.6734 41.2004 53.0028 40.5298 52.1756 40.5298C51.3483 40.5298 50.6777 41.2004 50.6777 42.0276C50.6777 42.8549 51.3483 43.5255 52.1756 43.5255Z" fill="white"/>
<path d="M18.5741 46.0001C20.7681 46.0001 22.5467 44.2215 22.5467 42.0275C22.5467 39.8335 20.7681 38.0549 18.5741 38.0549C16.3801 38.0549 14.6016 39.8335 14.6016 42.0275C14.6016 44.2215 16.3801 46.0001 18.5741 46.0001Z" fill="#212129"/>
<path d="M18.5711 43.5255C19.3983 43.5255 20.069 42.8549 20.069 42.0276C20.069 41.2004 19.3983 40.5298 18.5711 40.5298C17.7439 40.5298 17.0732 41.2004 17.0732 42.0276C17.0732 42.8549 17.7439 43.5255 18.5711 43.5255Z" fill="white"/>
<path d="M50.8067 34.2124H42.2103C41.5591 34.2124 41.0381 33.6914 41.0381 33.0402V27.6349C41.0381 26.9836 41.5591 26.4626 42.2103 26.4626H44.6199C45.206 26.4626 45.7921 26.7231 46.1829 27.1139L51.458 32.7146C51.9789 33.3007 51.5882 34.2124 50.8067 34.2124Z" fill="white"/>
<path d="M55.4974 35.2544C55.302 35.059 55.4323 34.7334 55.6928 34.7334H56.1486C57.5814 34.7334 58.6233 35.7754 58.8187 37.2081V37.3384C58.8187 37.5989 58.5582 37.7291 58.3629 37.5337L55.4974 35.2544Z" fill="white"/>
<path d="M11.082 21.969V37.4034" stroke="#A2121E" stroke-width="0.5" stroke-miterlimit="10" stroke-linecap="round" stroke-linejoin="round"/>
<path d="M11.2793 23.1416H40.5852C42.1482 23.1416 42.9296 23.6626 43.3204 24.4441" stroke="#A2121E" stroke-width="0.5" stroke-miterlimit="10" stroke-linecap="round" stroke-linejoin="round"/>
<path d="M27.6895 33.952H37.2627C37.9139 33.952 38.3698 33.431 38.3698 32.8449V27.8303C38.3698 27.2442 37.9139 26.7883 37.3278 26.7883H29.5129" stroke="#A2121E" stroke-width="0.5" stroke-miterlimit="10" stroke-linecap="round" stroke-linejoin="round"/>
</svg>
