<svg class="icon-ui" focusable="false" viewBox="0 0 24 24" xmlns="http://www.w3.org/2000/svg"><g><g><path d="M2.83 12a9.17 9.17 0 1 1 18.341 0A9.17 9.17 0 0 1 2.83 12zM12 0C5.373 0 0 5.373 0 12c0 6.628 5.373 12 12 12s12-5.372 12-12c0-6.627-5.373-12-12-12" opacity=".2"></path><path d="M18.028 1.626A11.838 11.838 0 0 0 12 0v2.821c1.704 0 3.352.504 4.728 1.316l1.3-2.51z" transform="rotate(235.297 12 12)"><animateTransform attributeType="xml" attributeName="transform" type="rotate" from="0 12 12" to="360 12 12" dur="0.5s" repeatCount="indefinite"></animateTransform></path></g></g></svg>