<svg width="135" height="29" viewBox="0 0 135 29" fill="none" xmlns="http://www.w3.org/2000/svg">
<path d="M0 14.4979C0 20.7021 3.84597 25.9915 9.2593 28.0678V0.930908C3.84597 3.0072 0 8.29509 0 14.4979Z" fill="#DC1928"/>
<path d="M14.3389 0C13.9417 0 13.5488 0.0144993 13.1602 0.0434978V1.0628H13.2333C18.6982 1.10339 23.0977 5.31688 23.059 10.4757C23.0232 15.6114 18.595 19.7466 13.1616 19.7408V28.9536C13.5488 28.987 13.9431 29 14.3403 29C22.256 29 28.6803 22.5072 28.6803 14.4978C28.6803 6.49132 22.256 0 14.3389 0Z" fill="#DC1928"/>
<path d="M41.8667 17.8821H37.2464L36.4376 20.2991H34.4014L38.3592 8.69971H40.7984L44.7247 20.2991H42.6726L41.8667 17.8821ZM41.2845 16.1335L39.5551 10.9877L37.8257 16.1335H41.2845Z" fill="#DC1928"/>
<path d="M50.8005 11.8374H52.7722V20.2992H50.8005V19.319H50.736C50.2025 20.0541 49.4755 20.5123 48.3613 20.5123C46.6648 20.5123 45.5664 19.2712 45.5664 17.3761V11.8374H47.5381V17.163C47.5381 18.1112 47.9899 18.7971 49.0725 18.7971C50.2039 18.7971 50.8019 17.9967 50.8019 17.0325V11.8374H50.8005Z" fill="#DC1928"/>
<path d="M56.0843 17.8486C56.2133 18.5996 56.7138 19.0578 57.7649 19.0578C58.7343 19.0578 59.2835 18.6489 59.2835 17.9472C59.2835 17.3759 59.0741 17.0323 58.1693 16.9177L56.6665 16.7379C54.9543 16.5422 54.243 15.7244 54.243 14.4021C54.243 12.7854 55.5996 11.6255 57.7004 11.6255C59.8972 11.6255 60.9641 12.9159 61.0617 14.1904H59.1229C59.0254 13.5046 58.5407 13.0798 57.6688 13.0798C56.764 13.0798 56.1818 13.5046 56.1818 14.1585C56.1818 14.6979 56.4729 15.0082 57.4422 15.1227L58.9293 15.3025C60.577 15.4982 61.2237 16.2667 61.2237 17.6717C61.2237 19.4203 59.7209 20.5135 57.7506 20.5135C55.4719 20.5135 54.2602 19.3869 54.0996 17.85H56.0843V17.8486Z" fill="#DC1928"/>
<path d="M63.3704 13.3076H61.7715V11.8374H63.3876V8.69971H65.3421V11.8359H67.2651V13.3061H65.3421V17.6516C65.3421 18.42 65.7293 18.7303 66.4736 18.7303H67.2809V20.2991H66.1337C64.2752 20.2991 63.3704 19.4495 63.3704 17.7835V13.3076Z" fill="#DC1928"/>
<path d="M70.9171 20.2992H68.9453V11.8374H70.9171V13.1119H70.9816C71.386 12.181 72.0643 11.8374 72.7755 11.8374H73.7291V13.602H72.8573C71.548 13.602 70.9185 14.2385 70.9185 15.7914V20.2992H70.9171Z" fill="#DC1928"/>
<path d="M76.8935 20.5121C75.2946 20.5121 74.2119 19.5638 74.2119 17.9805C74.2119 16.3146 75.4724 15.6766 76.8462 15.4968L78.6229 15.2677C79.3012 15.2025 79.4632 14.8922 79.4632 14.4021C79.4632 13.6829 78.9943 13.1276 78.0091 13.1276C77.0068 13.1276 76.4748 13.6829 76.393 14.4673H74.3897C74.4385 13.029 75.6344 11.6255 77.9604 11.6255C80.1573 11.6255 81.4507 12.9319 81.4507 14.8603V18.8461C81.4507 19.3696 81.531 19.8915 81.6285 20.3004H79.5923C79.5435 19.9742 79.512 19.6146 79.512 19.2057H79.4632C79.0273 19.9394 78.1052 20.5121 76.8935 20.5121ZM78.4121 16.4117L77.5402 16.6074C76.7157 16.7872 76.1994 17.1309 76.1994 17.8979C76.1994 18.6663 76.6511 19.0578 77.5244 19.0578C78.5426 19.0578 79.479 18.388 79.479 17.2773V15.9535C79.2366 16.1986 78.8495 16.3131 78.4121 16.4117Z" fill="#DC1928"/>
<path d="M83.1787 18.0127V8.11255H85.1505V17.8822C85.1505 18.4056 85.377 18.7318 85.9578 18.7318H86.6045V20.2992H85.5706C84.0348 20.2992 83.1787 19.4176 83.1787 18.0127Z" fill="#DC1928"/>
<path d="M90.1266 9.18971C90.1266 9.87552 89.5931 10.3989 88.9149 10.3989C88.2366 10.3989 87.7031 9.87552 87.7031 9.18971C87.7031 8.50389 88.2366 7.98047 88.9149 7.98047C89.5931 7.98047 90.1266 8.50389 90.1266 9.18971ZM89.9 11.8373V20.2991H87.9283V11.8373H89.9Z" fill="#DC1928"/>
<path d="M93.955 20.5121C92.3561 20.5121 91.2734 19.5638 91.2734 17.9805C91.2734 16.3146 92.5339 15.6766 93.9077 15.4968L95.6844 15.2677C96.3627 15.2025 96.5247 14.8922 96.5247 14.4021C96.5247 13.6829 96.0558 13.1276 95.0707 13.1276C94.0683 13.1276 93.5363 13.6829 93.4545 14.4673H91.4513C91.5 13.029 92.696 11.6255 95.0219 11.6255C97.2188 11.6255 98.5122 12.9319 98.5122 14.8603V18.8461C98.5122 19.3696 98.5925 19.8915 98.6901 20.3004H96.6538C96.605 19.9742 96.5735 19.6146 96.5735 19.2057H96.5247C96.0874 19.9394 95.1667 20.5121 93.955 20.5121ZM95.4736 16.4117L94.6017 16.6074C93.7772 16.7872 93.261 17.1309 93.261 17.8979C93.261 18.6663 93.7141 19.0578 94.586 19.0578C95.6041 19.0578 96.5405 18.388 96.5405 17.2773V15.9535C96.2982 16.1986 95.9095 16.3131 95.4736 16.4117Z" fill="#DC1928"/>
<path d="M108.398 8.69971C110.87 8.69971 112.437 10.1206 112.437 12.4565C112.437 14.8416 110.854 16.2466 108.398 16.2466H105.505V20.2991H103.422V8.69971H108.398ZM110.321 12.4579C110.321 11.0196 109.449 10.4164 108.011 10.4164H105.507V14.5328H108.011C109.449 14.5328 110.321 13.96 110.321 12.4579Z" fill="#DC1928"/>
<path d="M116.882 11.6401C119.306 11.6401 120.922 13.3887 120.922 16.0842C120.922 18.7796 119.306 20.5108 116.882 20.5108C114.459 20.5108 112.843 18.7796 112.843 16.0842C112.843 13.3887 114.459 11.6401 116.882 11.6401ZM118.917 15.742C118.917 14.1572 118.141 13.2264 116.881 13.2264C115.62 13.2264 114.845 14.1572 114.845 15.742V16.4278C114.845 18.0126 115.62 18.9275 116.881 18.9275C118.141 18.9275 118.917 18.0126 118.917 16.4278V15.742Z" fill="#DC1928"/>
<path d="M123.781 17.8486C123.91 18.5996 124.41 19.0578 125.461 19.0578C126.431 19.0578 126.98 18.6489 126.98 17.9472C126.98 17.3759 126.77 17.0323 125.866 16.9177L124.363 16.7379C122.651 16.5422 121.939 15.7244 121.939 14.4021C121.939 12.7854 123.296 11.6255 125.397 11.6255C127.594 11.6255 128.66 12.9159 128.758 14.1904H126.819C126.722 13.5046 126.237 13.0798 125.365 13.0798C124.46 13.0798 123.878 13.5046 123.878 14.1585C123.878 14.6979 124.169 15.0082 125.139 15.1227L126.626 15.3025C128.273 15.4982 128.92 16.2667 128.92 17.6717C128.92 19.4203 127.417 20.5135 125.447 20.5135C123.168 20.5135 121.957 19.3869 121.796 17.85H123.781V17.8486Z" fill="#DC1928"/>
<path d="M131.067 13.3076H129.468V11.8374H131.084V8.69971H133.038V11.8359H134.961V13.3061H133.038V17.6516C133.038 18.42 133.426 18.7303 134.17 18.7303H134.977V20.2991H133.83C131.972 20.2991 131.067 19.4495 131.067 17.7835V13.3076Z" fill="#DC1928"/>
</svg>
