<svg width="68" height="68" viewBox="0 0 68 68" fill="none" xmlns="http://www.w3.org/2000/svg">
<path d="M34.0003 66.0755C51.7151 66.0755 66.0757 51.7148 66.0757 34C66.0757 16.2852 51.7151 1.92456 34.0003 1.92456C16.2855 1.92456 1.9248 16.2852 1.9248 34C1.9248 51.7148 16.2855 66.0755 34.0003 66.0755Z" fill="#F1F1F2"/>
<path d="M21.6838 20.491H3.20801V42.6906H21.6838V20.491Z" fill="#D29779"/>
<path d="M34.0008 20.491H21.6836V42.6906H34.0008V20.491Z" fill="#D29779"/>
<path d="M15.5958 20.491H9.29395V27.867H15.5958V20.491Z" fill="#DC1928"/>
<path d="M21.5361 23.8853L21.5361 42.5586" stroke="#995337" stroke-width="0.5" stroke-miterlimit="10" stroke-linecap="round"/>
<line x1="38.8818" y1="42.6829" x2="0.570515" y2="42.6828" stroke="black" stroke-width="0.5" stroke-linecap="round"/>
<mask id="mask0_4391_25098" style="mask-type:alpha" maskUnits="userSpaceOnUse" x="1" y="1" width="66" height="66">
<path d="M34.0003 66.0755C51.7151 66.0755 66.0757 51.7148 66.0757 34C66.0757 16.2852 51.7151 1.92456 34.0003 1.92456C16.2855 1.92456 1.9248 16.2852 1.9248 34C1.9248 51.7148 16.2855 66.0755 34.0003 66.0755Z" fill="#F1F1F2"/>
</mask>
<g mask="url(#mask0_4391_25098)">
<path d="M46.4866 30.99L60.8327 46.8387C61.7608 47.8634 62.3187 49.2058 62.3242 50.6089V70.6891H45.0254L45.4591 68.2474L31.9277 50.178L46.4866 30.99Z" fill="#C57C5A"/>
<path d="M47.1055 59.2882H51.5918C52.8959 59.2882 53.9518 58.2323 53.9518 56.9282V12.7084C53.9518 11.4043 52.8959 10.3484 51.5918 10.3484H29.945C28.6409 10.3484 27.585 11.4043 27.585 12.7084V56.9311C27.585 58.2351 28.6409 59.2911 29.945 59.2911H34.4313H47.1055V59.2882Z" fill="#31313D"/>
<path d="M53.9528 16.6531H27.5889V51.2569H53.9528V16.6531Z" fill="white"/>
<path d="M40.7714 14.3423C41.2988 14.3423 41.7263 13.9148 41.7263 13.3873C41.7263 12.8599 41.2988 12.4324 40.7714 12.4324C40.244 12.4324 39.8164 12.8599 39.8164 13.3873C39.8164 13.9148 40.244 14.3423 40.7714 14.3423Z" fill="#6F6F77"/>
<path d="M40.7695 57.4599C41.9916 57.4599 42.9824 56.4692 42.9824 55.247C42.9824 54.0249 41.9916 53.0342 40.7695 53.0342C39.5474 53.0342 38.5566 54.0249 38.5566 55.247C38.5566 56.4692 39.5474 57.4599 40.7695 57.4599Z" fill="#6F6F77"/>
<path d="M47.1055 59.0382C47.0925 59.0382 47.0798 59.0392 47.0674 59.0411H34.4313H29.945C28.779 59.0411 27.835 58.0971 27.835 56.9311V12.7084C27.835 11.5424 28.779 10.5984 29.945 10.5984H51.5918C52.7578 10.5984 53.7018 11.5424 53.7018 12.7084V56.9282C53.7018 58.0942 52.7578 59.0382 51.5918 59.0382H47.1055Z" stroke="#31313D" stroke-width="0.5" stroke-miterlimit="10" stroke-linecap="round" stroke-linejoin="round"/>
<path d="M49.3683 53.0691L42.9603 47.6168C42.9603 47.6168 37.8891 42.8881 42.3167 39.4963L56.8341 49.1608L54.7487 69.8155C54.7515 69.8182 47.7276 64.6725 49.3683 53.0691Z" fill="#C57C5A"/>
<path d="M42.8162 39.8247L42.2224 40.6506C41.8826 41.1256 41.9931 41.8023 42.4709 42.1448L43.33 42.7635C44.1558 43.3601 45.2855 43.153 45.8379 42.3023L46.0506 41.9764L42.8162 39.8247Z" fill="#D29779"/>
<path d="M53.0001 68.0632C51.039 65.6823 48.2714 60.8155 49.3679 53.0652" stroke="#995337" stroke-width="0.5" stroke-miterlimit="10" stroke-linecap="round" stroke-linejoin="round"/>
<path d="M54.8643 47.9578L58.0296 49.8636" stroke="#995337" stroke-width="0.5" stroke-miterlimit="10" stroke-linecap="round" stroke-linejoin="round"/>
</g>
<path fill-rule="evenodd" clip-rule="evenodd" d="M40.7046 19.2464C43.2288 19.2098 45.625 20.1304 47.4481 21.8801C49.2711 23.6298 50.3016 25.983 50.3564 28.5131C50.4113 31.037 49.4723 33.4329 47.7225 35.2619C45.9726 37.0847 43.619 38.1211 41.0887 38.1699C41.0216 38.1699 40.9546 38.1699 40.8936 38.1699C38.4425 38.1699 36.1256 37.2371 34.3452 35.5362C32.5221 33.7865 31.4917 31.4333 31.4368 28.9032C31.382 26.3793 32.3209 23.9834 34.0708 22.1544C35.8207 20.3316 38.1742 19.3013 40.7046 19.2464Z" fill="#1D964F"/>
<path fill-rule="evenodd" clip-rule="evenodd" d="M37.5157 28.1473L39.3266 29.958L44.2898 24.9954L45.4057 26.111L39.8876 31.6285C39.7351 31.7809 39.5339 31.8601 39.3327 31.8601C39.1315 31.8601 38.9303 31.7809 38.7779 31.6285L36.4121 29.263L37.5279 28.1473H37.5157Z" fill="white"/>
</svg>
